<?xml version="1.0" encoding="UTF-8" standalone="no"?>
<!-- Uploaded to: SVG Repo, www.svgrepo.com, Generator: SVG Repo Mixer Tools -->

<svg
   width="800px"
   height="800px"
   viewBox="0 0 16 16"
   fill="none"
   version="1.1"
   id="svg1"
   sodipodi:docname="linkedin.svg"
   inkscape:version="1.3.2 (091e20e, 2023-11-25, custom)"
   xmlns:inkscape="http://www.inkscape.org/namespaces/inkscape"
   xmlns:sodipodi="http://sodipodi.sourceforge.net/DTD/sodipodi-0.dtd"
   xmlns="http://www.w3.org/2000/svg"
   xmlns:svg="http://www.w3.org/2000/svg">
  <defs
     id="defs1" />
  <sodipodi:namedview
     id="namedview1"
     pagecolor="#ffffff"
     bordercolor="#000000"
     borderopacity="0.25"
     inkscape:showpageshadow="2"
     inkscape:pageopacity="0.0"
     inkscape:pagecheckerboard="0"
     inkscape:deskcolor="#d1d1d1"
     inkscape:zoom="1.0367953"
     inkscape:cx="337.57868"
     inkscape:cy="399.78961"
     inkscape:window-width="2560"
     inkscape:window-height="1369"
     inkscape:window-x="1912"
     inkscape:window-y="-8"
     inkscape:window-maximized="1"
     inkscape:current-layer="svg1" />
  <path
     fill="#0A66C2"
     d="M 13.624104,13.624102 H 11.257323 V 9.9168544 c 0,-0.8838822 -0.01597,-2.0220138 -1.231312,-2.0220138 -1.2326432,0 -1.4216662,0.9637511 -1.4216662,1.9567876 V 13.624102 H 6.2375637 V 6.000617 h 2.2722696 v 1.0422889 h 0.031948 c 0.4632395,-0.790702 1.3258234,-1.2645906 2.2416527,-1.231312 2.398729,0 2.842001,1.5774105 2.842001,3.6313719 l -0.0014,4.1798042 z M 3.5672807,4.9583281 A 1.3804005,1.3804005 0 0 1 2.193536,3.5859145 c 0,-0.7534298 0.6203149,-1.3737448 1.3737447,-1.3737448 0.7534299,0 1.3724136,0.620315 1.3737448,1.3737448 0,0.7534298 -0.6203149,1.3737448 -1.3737448,1.3737448 z M 4.7506714,13.624102 H 2.3812279 V 6.000617 H 4.7506714 Z M 14.802169,0.01311323 H 1.1911816 A 1.1714103,1.1714103 0 0 0 0.01311556,1.1658874 V 14.834115 A 1.1714103,1.1714103 0 0 0 1.1911816,15.986889 H 14.803501 a 1.1740725,1.1740725 0 0 0 1.183391,-1.152774 V 1.1645562 A 1.1714103,1.1714103 0 0 0 14.803501,0.01444437 Z"
     id="path1"
     style="fill:#feffff;fill-opacity:1;stroke-width:1.33114" />
</svg>
