<?xml version="1.0" encoding="UTF-8" standalone="no"?>
<!-- Uploaded to: SVG Repo, www.svgrepo.com, Generator: SVG Repo Mixer Tools -->

<svg
   width="800px"
   height="800px"
   viewBox="-52.5 0 361 361"
   preserveAspectRatio="xMidYMid"
   version="1.1"
   id="svg5"
   sodipodi:docname="css.svg"
   inkscape:version="1.3.2 (091e20e, 2023-11-25, custom)"
   xmlns:inkscape="http://www.inkscape.org/namespaces/inkscape"
   xmlns:sodipodi="http://sodipodi.sourceforge.net/DTD/sodipodi-0.dtd"
   xmlns="http://www.w3.org/2000/svg"
   xmlns:svg="http://www.w3.org/2000/svg">
  <defs
     id="defs5" />
  <sodipodi:namedview
     id="namedview5"
     pagecolor="#ffffff"
     bordercolor="#000000"
     borderopacity="0.25"
     inkscape:showpageshadow="2"
     inkscape:pageopacity="0.0"
     inkscape:pagecheckerboard="0"
     inkscape:deskcolor="#d1d1d1"
     inkscape:zoom="0.733125"
     inkscape:cx="434.4416"
     inkscape:cy="464.45013"
     inkscape:window-width="2560"
     inkscape:window-height="1369"
     inkscape:window-x="1912"
     inkscape:window-y="-8"
     inkscape:window-maximized="1"
     inkscape:current-layer="svg5" />
  <path
     d="M 127.8065,360.088 -1.4209538,324.21312 -30.219343,1.2127179 H 286.21934 L 257.39118,324.16351 Z"
     fill="#264de4"
     id="path1"
     style="stroke-width:1.2404" />
  <path
     d="M 232.71093,303.5989 257.34529,27.622094 H 128 V 332.628 Z"
     fill="#2965f1"
     id="path2"
     style="stroke-width:1.2404" />
  <path
     d="m 35.799757,147.41878 3.550028,39.61468 H 128 V 147.41878 Z M 28.664971,67.23802 32.265855,106.8527 H 128 V 67.23802 Z M 128,250.30259 l -0.17366,0.0459 -44.118577,-11.91281 -2.820672,-31.59426 H 41.119837 l 5.549554,62.20115 81.148269,22.52568 0.18234,-0.0496 z"
     fill="#ebebeb"
     id="path3"
     style="stroke-width:1.2404" />
  <path
     d="m 219.9472,147.41878 7.15091,-80.18076 h -99.23455 v 39.61468 h 55.82052 l -3.60461,40.56608 h -52.21591 v 39.61468 h 48.78124 l -4.5994,51.37741 -44.18308,11.92521 v 41.21357 l 81.21277,-22.50708 0.59539,-6.6932 9.31045,-104.29291 z"
     fill="#ffffff"
     id="path5"
     style="stroke-width:1.2404" />
</svg>
