<?xml version="1.0" encoding="UTF-8" standalone="no"?>
<!-- Uploaded to: SVG Repo, www.svgrepo.com, Generator: SVG Repo Mixer Tools -->

<svg
   width="800px"
   height="800px"
   viewBox="-52.5 0 361 361"
   preserveAspectRatio="xMinYMin meet"
   version="1.1"
   id="svg5"
   sodipodi:docname="html.svg"
   inkscape:version="1.3.2 (091e20e, 2023-11-25, custom)"
   xmlns:inkscape="http://www.inkscape.org/namespaces/inkscape"
   xmlns:sodipodi="http://sodipodi.sourceforge.net/DTD/sodipodi-0.dtd"
   xmlns="http://www.w3.org/2000/svg"
   xmlns:svg="http://www.w3.org/2000/svg">
  <defs
     id="defs5" />
  <sodipodi:namedview
     id="namedview5"
     pagecolor="#ffffff"
     bordercolor="#000000"
     borderopacity="0.25"
     inkscape:showpageshadow="2"
     inkscape:pageopacity="0.0"
     inkscape:pagecheckerboard="0"
     inkscape:deskcolor="#d1d1d1"
     showgrid="false"
     inkscape:zoom="1.0367953"
     inkscape:cx="378.57038"
     inkscape:cy="334.2029"
     inkscape:window-width="2560"
     inkscape:window-height="1369"
     inkscape:window-x="1912"
     inkscape:window-y="-8"
     inkscape:window-maximized="1"
     inkscape:current-layer="svg5" />
  <path
     d="M 286.44843,0.69310449 257.57853,324.11149 127.80622,360.088 -1.6083416,324.16118 -30.448427,0.69310449 Z"
     fill="#e44d26"
     id="path1"
     style="stroke-width:1.2422" />
  <path
     d="M 128,332.58824 232.86254,303.51711 257.53257,27.140719 H 128 Z"
     fill="#f16529"
     id="path2"
     style="stroke-width:1.2422" />
  <path
     d="M 71.877543,106.48605 H 128 V 66.814004 H 28.521145 L 29.470183,77.457147 39.221429,186.7829 H 128 V 147.11085 H 75.503516 Z m 8.941334,100.13349 H 40.994044 l 5.557589,62.29121 81.265767,22.55829 0.1826,-0.0497 v -41.27571 l -0.17391,0.046 -44.182457,-11.93006 z"
     fill="#ebebeb"
     id="path3"
     style="stroke-width:1.2422" />
  <path
     d="m 127.86336,186.7829 h 48.85188 l -4.60607,51.45179 -44.24705,11.94248 v 41.27324 l 81.33035,-22.53966 0.59626,-6.7029 9.32393,-104.44391 0.96767,-10.65309 h -92.21697 z m 0,-80.39374 v 0.0969 h 95.82679 l 0.79501,-8.916493 1.80864,-20.11241 0.9478,-10.643143 H 127.86336 V 106.3904 Z"
     fill="#ffffff"
     id="path5"
     style="stroke-width:1.2422" />
</svg>
