<?xml version="1.0" encoding="UTF-8" standalone="no"?>
<!-- Uploaded to: SVG Repo, www.svgrepo.com, Generator: SVG Repo Mixer Tools -->

<svg
   width="800px"
   height="800px"
   viewBox="-18.458 -22.75 191.151 191.151"
   version="1.1"
   id="svg5"
   sodipodi:docname="mysql.svg"
   inkscape:version="1.3.2 (091e20e, 2023-11-25, custom)"
   xmlns:inkscape="http://www.inkscape.org/namespaces/inkscape"
   xmlns:sodipodi="http://sodipodi.sourceforge.net/DTD/sodipodi-0.dtd"
   xmlns="http://www.w3.org/2000/svg"
   xmlns:svg="http://www.w3.org/2000/svg">
  <defs
     id="defs5" />
  <sodipodi:namedview
     id="namedview5"
     pagecolor="#ffffff"
     bordercolor="#000000"
     borderopacity="0.25"
     inkscape:showpageshadow="2"
     inkscape:pageopacity="0.0"
     inkscape:pagecheckerboard="0"
     inkscape:deskcolor="#d1d1d1"
     inkscape:zoom="0.733125"
     inkscape:cx="412.61722"
     inkscape:cy="435.80563"
     inkscape:window-width="2560"
     inkscape:window-height="1369"
     inkscape:window-x="1912"
     inkscape:window-y="-8"
     inkscape:window-maximized="1"
     inkscape:current-layer="svg5" />
  <path
     d="M-18.458 6.58h191.151v132.49H-18.458V6.58z"
     fill="none"
     id="path1" />
  <path
     d="m 28.253878,129.77604 h -7.41349 C 20.57823,117.26265 19.85622,105.49848 18.675792,94.47494 h -0.0659 L 7.3227673,129.77604 H 1.6784874 L -9.5413095,94.47494 h -0.06447 c -0.8323175,10.58374 -1.3566335,22.35078 -1.5743815,35.3011 h -6.757374 c 0.435498,-15.74811 1.529973,-30.512057 3.279126,-44.293268 h 9.18843 L 5.2240693,118.02907 h 0.065901 L 16.049917,85.482772 h 8.791611 c 1.925357,16.142068 3.062809,30.907448 3.412354,44.293268 M 60.404786,97.096523 c -3.018401,16.379867 -7.000913,28.281567 -11.94324,35.710817 -3.850716,5.71877 -8.069601,8.58103 -12.663816,8.58103 -1.224837,0 -2.736186,-0.3696 -4.526884,-1.10308 v -3.94956 c 0.875293,0.12606 1.902437,0.19769 3.082865,0.19769 2.145972,0 3.870773,-0.59021 5.185862,-1.77351 1.572949,-1.44115 2.359423,-3.06138 2.359423,-4.8535 0,-1.22914 -0.613135,-3.74185 -1.83654,-7.54672 L 31.926957,97.095089 h 7.283127 l 5.839108,18.895441 c 1.312224,4.29052 1.859461,7.286 1.64028,8.99217 3.193172,-8.52801 5.423665,-17.82676 6.694345,-27.889042 h 7.020969 z"
     fill="#5d87a1"
     id="path2"
     style="stroke-width:1.43256" />
  <path
     d="M 159.08657,129.77604 H 138.02796 V 85.482772 h 7.084 v 38.840958 h 13.97461 z m -26.57109,1.07013 -8.14266,-4.01833 c 0.722,-0.59308 1.4125,-1.23487 2.03422,-1.97836 3.46107,-4.06561 5.1873,-10.07805 5.1873,-18.04165 0,-14.653634 -5.75028,-21.984035 -17.25516,-21.984035 -5.64142,0 -10.04224,1.85946 -13.18957,5.579815 -3.458198,4.068466 -5.184432,10.05943 -5.184432,17.98004 0,7.78595 1.529973,13.49757 4.591352,17.1205 2.80066,3.28199 7.02241,4.92514 12.66811,4.92514 2.10587,0 4.03839,-0.25786 5.799,-0.77788 l 10.60094,6.17146 z m -26.37771,-9.93337 c -1.79355,-2.88516 -2.69034,-7.51806 -2.69034,-13.90584 0,-11.152466 3.38801,-16.735145 10.17116,-16.735145 3.54559,0 6.14425,1.335144 7.80603,3.999703 1.79069,2.88947 2.69177,7.480822 2.69177,13.779772 0,11.24416 -3.39087,16.86695 -10.16973,16.86695 -3.54702,0.001 -6.14568,-1.32941 -7.80889,-4.00544 m -13.259755,-3.41378 c 0,3.75616 -1.378123,6.8376 -4.131494,9.25146 -2.756243,2.40383 -6.452244,3.60862 -11.083704,3.60862 -4.332057,0 -8.532318,-1.38386 -12.597919,-4.13724 l 1.90387,-3.80344 c 3.498307,1.75202 6.665694,2.62302 9.509323,2.62302 2.668856,0 4.75466,-0.59164 6.267442,-1.76491 1.511349,-1.17757 2.412428,-2.8293 2.412428,-4.91798 0,-2.63161 -1.835107,-4.88073 -5.201619,-6.76454 -3.104354,-1.70474 -9.313062,-5.26894 -9.313062,-5.26894 -3.365079,-2.45255 -5.049768,-5.08559 -5.049768,-9.423376 0,-3.589991 1.256354,-6.488057 3.770493,-8.692764 2.517006,-2.213302 5.764615,-3.316372 9.745696,-3.316372 4.111442,0 7.848987,1.101637 11.2155,3.281991 l -1.707608,3.804874 c -2.879446,-1.223404 -5.721641,-1.835106 -8.525157,-1.835106 -2.270606,0 -4.024057,0.545804 -5.243164,1.641711 -1.229136,1.09161 -1.986959,2.488355 -1.986959,4.201694 0,2.618718 1.873786,4.896488 5.331983,6.817548 3.145898,1.70761 9.509321,5.33341 9.509321,5.33341 3.45104,2.44824 5.174398,5.05694 5.174398,9.36034"
     fill="#f8981d"
     id="path3"
     style="stroke-width:1.43256" />
  <path
     d="m 167.97989,70.647197 c -4.28334,-0.10887 -7.59972,0.322326 -10.38318,1.499889 -0.80367,0.320893 -2.08151,0.320893 -2.19325,1.336577 0.43406,0.429767 0.4842,1.123125 0.86097,1.716204 0.64179,1.070122 1.76061,2.509843 2.78202,3.260504 1.1217,0.859535 2.24769,1.710475 3.42812,2.459702 2.0815,1.287871 4.44093,2.037098 6.46943,3.320671 1.18186,0.746362 2.35657,1.711906 3.53986,2.515572 0.58161,0.428335 0.95408,1.123126 1.70904,1.391014 v -0.163312 c -0.3782,-0.481339 -0.48564,-1.177563 -0.85667,-1.713339 L 171.7289,84.72065 c -1.5529,-2.085804 -3.48255,-3.906586 -5.56406,-5.402177 -1.71334,-1.180428 -5.46092,-2.784893 -6.15571,-4.758959 l -0.10889,-0.10887 c 1.17757,-0.110313 2.57431,-0.537209 3.69313,-0.865265 1.82078,-0.479907 3.48112,-0.371033 5.34918,-0.850939 0.85953,-0.214884 1.7119,-0.484205 2.5743,-0.749229 v -0.482772 c -0.96841,-0.964112 -1.6589,-2.244818 -2.67745,-3.155925 -2.72472,-2.353695 -5.72736,-4.655815 -8.83029,-6.582607 -1.66176,-1.072986 -3.79915,-1.763479 -5.56835,-2.676018 -0.63749,-0.322326 -1.71191,-0.48134 -2.08724,-1.017117 -0.95982,-1.177563 -1.49989,-2.727591 -2.19611,-4.121471 -1.54716,-2.941042 -3.04991,-6.20441 -4.38506,-9.314494 -0.96554,-2.085805 -1.55289,-4.168745 -2.73046,-6.098401 -5.51534,-9.096746 -11.50488,-14.606365 -20.7105,-20.014274 -1.97836,-1.125991 -4.33205,-1.605897 -6.84619,-2.196111 l -4.01547,-0.212019 c -0.85666,-0.37533 -1.71476,-1.393879 -2.46255,-1.875218 -3.05422,-1.925359 -10.917542,-6.0984013 -13.163793,-0.588782 -1.446877,3.48255 2.140246,6.906363 3.372247,8.672708 0.909676,1.22627 2.088676,2.621582 2.724726,4.014029 0.37677,0.909674 0.48277,1.875219 0.85953,2.836465 0.85668,2.355126 1.65747,4.975275 2.78347,7.172821 0.58735,1.120259 1.2277,2.297822 1.97836,3.312074 0.42976,0.593079 1.17757,0.855237 1.34087,1.822214 -0.74636,1.065824 -0.80509,2.674586 -1.23343,4.012596 -1.92536,6.046829 -1.17326,13.537677 1.55575,17.981473 0.85381,1.338009 2.89091,4.28335 5.61564,3.154494 2.41243,-0.96268 1.87808,-4.012596 2.57144,-6.687183 0.15901,-0.646083 0.0544,-1.070121 0.37533,-1.494159 v 0.104575 c 0.74636,1.497023 1.49989,2.939609 2.19182,4.44093 1.66033,2.620149 4.55123,5.350605 6.95937,7.165658 1.28214,0.968409 2.29782,2.624445 3.90372,3.216092 v -0.160446 h -0.10601 c -0.3252,-0.479907 -0.80081,-0.694791 -1.22771,-1.067256 -0.96554,-0.964112 -2.03422,-2.141675 -2.78346,-3.210363 -2.24339,-2.998345 -4.22891,-6.317583 -5.99095,-9.742829 -0.8624,-1.661769 -1.6059,-3.478252 -2.3007,-5.137155 -0.32376,-0.640354 -0.32376,-1.605899 -0.86097,-1.928224 -0.80509,1.17613 -1.97836,2.19468 -2.5657,3.635833 -1.01856,2.304987 -1.12456,5.14002 -1.50276,8.088225 l -0.21059,0.103142 c -1.70474,-0.428335 -2.29782,-2.191815 -2.94533,-3.688838 -1.60304,-3.80201 -1.87236,-9.904709 -0.48135,-14.291202 0.37247,-1.121694 1.9841,-4.654382 1.34088,-5.723071 -0.32232,-1.024279 -1.39388,-1.60733 -1.98123,-2.413861 -0.6905,-1.014252 -1.44688,-2.297824 -1.92823,-3.423815 -1.28357,-2.995479 -1.92965,-6.314716 -3.31207,-9.308764 -0.64608,-1.395312 -1.76777,-2.839331 -2.67601,-4.124335 -1.01998,-1.444019 -2.141682,-2.461135 -2.948216,-4.173043 -0.266446,-0.588781 -0.640354,-1.551461 -0.212012,-2.191814 0.104621,-0.429767 0.322325,-0.590214 0.749224,-0.697656 0.693358,-0.585916 2.674594,0.159014 3.369384,0.481339 1.98409,0.802233 3.64299,1.551461 5.29903,2.674587 0.74923,0.537209 1.55289,1.554326 2.51414,1.822214 h 1.12599 c 1.70904,0.372465 3.63583,0.103142 5.24459,0.587349 2.83504,0.911107 5.40362,2.247685 7.70717,3.690271 7.00951,4.445228 12.78988,10.761379 16.69217,18.30523 0.64035,1.229136 0.91254,2.355127 1.49702,3.637266 1.12743,2.624447 2.52131,5.300466 3.64013,7.869043 1.12456,2.514141 2.19611,5.081284 3.80201,7.169955 0.80081,1.123125 4.01833,1.711908 5.46092,2.300689 1.06726,0.479907 2.72902,0.90681 3.6917,1.495591 1.82078,1.121693 3.6344,2.409563 5.34631,3.642996 0.85237,0.641785 3.53126,1.979795 3.69027,3.051349 M 113.39082,24.140622 a 8.3374898,8.3374898 0 0 0 -2.19038,0.269321 v 0.107438 h 0.10311 c 0.4312,0.855237 1.18042,1.448316 1.71477,2.194679 0.43121,0.858102 0.8051,1.709042 1.22771,2.565712 l 0.10312,-0.106006 c 0.75496,-0.534345 1.13029,-1.391015 1.13029,-2.676019 -0.32519,-0.378195 -0.37533,-0.747796 -0.64608,-1.123126 -0.31517,-0.535777 -1.00996,-0.802233 -1.4426,-1.232"
     fill="#5d87a1"
     id="path4"
     style="stroke-width:1.43256" />
  <path
     d="m 173.07694,129.76888 h 1.10879 v -5.42653 h -1.6632 l -1.35663,3.70316 -1.47411,-3.70316 h -1.60159 v 5.42653 h 1.0472 v -4.12863 h 0.0588 l 1.5443,4.12863 h 0.79793 l 1.53858,-4.12863 z m -8.932,0 h 1.17325 v -4.50682 h 1.53572 v -0.92115 h -4.30914 v 0.92115 h 1.5973 z"
     fill="#f8981d"
     id="path5"
     style="stroke-width:1.43256" />
</svg>
